<?xml version="1.0" encoding="utf-8"?>
<!-- Generator: Adobe Illustrator 23.0.1, SVG Export Plug-In . SVG Version: 6.00 Build 0)  -->
<svg version="1.1" id="Layer_1" xmlns="http://www.w3.org/2000/svg" xmlns:xlink="http://www.w3.org/1999/xlink" x="0px" y="0px"
	 viewBox="0 0 1213 258.73" style="enable-background:new 0 0 1213 258.73;" xml:space="preserve">
<style type="text/css">
	.st0{fill:#FFFFFF;}
</style>
<g>
	<path class="st0" d="M137.21,5.66c40.63,13.94,56.9,46.82,65.31,85.23c4.61,21.05,3.74,42.33-1.6,63.31
		c-0.05,0.19,0.32,0.49,0.56,0.82c1.91-0.57,1.85-2.45,2.44-3.81c5.15-11.94,10.18-23.92,15.38-35.84
		c1.62-3.71,3.69-7.23,5.52-10.86c1.91-3.79,4.54-5.13,8.74-3.29c3.56,1.55,7.35,2.59,11.05,3.79c4.11,1.32,5,3.98,2.93,7.53
		c-2.46,4.21-5.21,8.25-7.78,12.39c-10.92,17.53-21.42,35.32-32.48,52.78c-20.61,32.53-48.22,57.39-81.46,76.32
		c-1.24,0.71-2.87,2.91-4.1,1.04c-1.36-2.09,1.37-2.92,2.64-3.87c16.66-12.46,31.8-26.42,43.72-43.62
		c20.05-28.93,25.69-60.99,20.52-95.34c-2.34-15.57-6.8-30.45-15.2-43.92c-6.04-9.68-13.5-17.99-23.89-23.14
		c-18.66-9.25-34.85,0.41-35.72,21.24c-0.68,16.25,4.65,31.04,11.25,45.48c5.36,11.71,11.99,22.71,19.11,33.43
		c0.87,1.3,2.21,2.41,2.23,4.7c-8.41,0.22-16.8,0.19-25.14,1.17c-18.88,2.22-37.14,6.47-53.92,15.79c-7.6,4.22-14.4,9.48-20.2,15.98
		c-10.45,11.72-10.01,26.62,1.21,37.57c7.82,7.63,17.6,10.93,28.23,11.82c21.44,1.81,40.69-5.16,59.12-15.19
		c2-1.09,3.96-2.25,5.95-3.35c0.78-0.43,1.7-0.45,2.2,0.3c0.51,0.77,0.06,1.55-0.64,2.1c-1.67,1.3-3.32,2.63-5.04,3.85
		c-22.89,16.24-48.08,24.95-76.42,23c-12.56-0.86-24.25-4.68-34.73-11.75c-16.06-10.84-21.73-28.18-15.27-47.2
		c8.01-23.59,25.48-36.61,48.86-42.58c19.57-5,39.36-4.2,59.17-1.56c2.07,0.28,4.14,0.53,6.43,0.83c-0.49-2.61-2.29-3.91-3.54-5.52
		c-15.52-20.12-27.46-41.92-30.84-67.52c-1.95-14.77-0.98-29.3,6.69-42.6c5.63-9.75,13.72-16.37,24.98-18.67
		c0.39-0.08,0.69-0.56,1.04-0.85C128.74,5.66,132.98,5.66,137.21,5.66z"/>
	<path class="st0" d="M1071.47,211.94c10.44-34.22,20.74-67.77,30.83-101.38c1.12-3.74,2.56-5.19,6.64-5.02
		c8.19,0.36,8.21,0.09,10.62,8.09c9.18,30.5,18.36,60.99,27.5,91.5c0.7,2.33,1.16,4.72,2.01,8.29c1.16-4.8,1.89-8.59,3-12.26
		c9.27-30.64,18.61-61.25,27.96-91.87c0.45-1.47,0.66-3.15,3.02-3.09c5.67,0.13,11.34,0.04,17.5,0.04
		c-4.87,15.7-9.56,30.89-14.28,46.07c-8.74,28.08-17.56,56.14-26.16,84.26c-1.21,3.96-2.74,5.67-7.28,5.54
		c-13.25-0.37-13.35-0.1-17.32-13.03c-7.78-25.31-16.81-50.25-22.62-76.15c-0.87-3.89-1.54-7.82-2.56-13.03
		c-6.93,34.57-18.73,66.25-28.14,98.61c-0.76,2.62-1.9,3.71-4.73,3.53c-4.86-0.31-10.65,1.35-14.36-0.77
		c-3.82-2.19-3.65-8.63-5.1-13.23c-12.18-38.75-24.23-77.54-36.31-116.33c-1.7-5.46-1.68-5.51,3.97-5.46
		c4.71,0.04,10.67-1.5,13.77,0.79c3.09,2.28,3.37,8.43,4.75,12.93c8.2,26.72,16.38,53.44,24.49,80.19
		C1069.8,203.84,1070.48,207.67,1071.47,211.94z"/>
	<path class="st0" d="M1011.93,173.25c0.07,36.04-22.17,63.16-55.84,69.35c-37.63,6.91-73.65-20.36-77.3-58.52
		c-2.78-29.12,6.41-53.32,31.24-69.57c40.15-26.28,93.14-2.07,100.73,45.4C1011.54,164.75,1012.03,169.59,1011.93,173.25z
		 M897.03,174.93c0.12,2.07,0.09,4.37,0.4,6.62c2.79,20.04,12.97,34.81,32.34,41.48c18.43,6.34,35.18,1.86,48.76-12.09
		c17.63-18.11,19.47-47.74,4.85-68.89c-15.69-22.71-45.97-27.04-67.18-9.39C903.13,143.53,897.17,157.84,897.03,174.93z"/>
	<path class="st0" d="M385.3,106.24c-15.24,16.18-29.53,31.32-43.79,46.49c-3.56,3.79-9.29,7.35-9.89,11.6
		c-0.61,4.3,5.21,8.42,8.3,12.55c15.1,20.19,30.32,40.3,45.46,60.47c0.74,0.99,2.33,1.92,1.79,3.21c-0.69,1.66-2.57,0.83-3.9,0.83
		c-6.17-0.02-13.23,1.63-18.25-0.82c-4.82-2.35-7.59-8.99-11.18-13.79c-11.21-14.98-22.47-29.92-33.51-45.03
		c-2.14-2.92-3.23-3.02-5.59-0.32c-5.03,5.76-10.33,11.28-15.66,16.77c-1.94,2-2.8,4.08-2.76,6.92c0.15,10.74-0.05,21.49,0.13,32.23
		c0.05,3.16-0.8,4.43-4.09,4.13c-4.67-0.42-10.69,1.89-13.7-0.85c-3.09-2.81-0.96-8.92-0.97-13.56
		c-0.09-38.58,0.01-77.16-0.14-115.74c-0.01-3.92,0.73-5.71,4.99-5.14c4.45,0.6,10.44-1.96,13.03,1.06
		c2.21,2.58,0.78,8.36,0.79,12.72c0.04,18.36,0.02,36.72,0.02,56.44c2.23-2.69,3.65-4.53,5.19-6.25
		c18.5-20.57,37.02-41.13,55.54-61.69c1.09-1.21,2.12-2.3,4.05-2.27C368.76,106.3,376.35,106.24,385.3,106.24z"/>
	<path class="st0" d="M491.31,104.26c17.64-0.06,31.09,4.45,43.23,13.2c2.54,1.83,3.14,3.13,0.94,5.69
		c-2.97,3.44-4.89,8.86-8.52,10.35c-3.62,1.49-6.98-3.99-10.8-5.91c-11.44-5.75-23.22-7.3-35.46-3.53
		c-6.51,2.01-11.74,5.83-13.15,13.06c-1.61,8.29,1.17,13.79,9.15,17.99c7.36,3.87,15.41,6.03,23.2,8.83
		c7.65,2.75,15.21,5.65,22.4,9.51c26.04,13.96,21.01,46.48,3.63,59.29c-11,8.11-23.49,11-36.74,10.88
		c-15.8-0.14-30.39-4.75-43.75-13.27c-2.83-1.8-3.99-3.31-1.47-6.37c2.15-2.62,3.95-5.59,5.57-8.59c1.46-2.7,2.69-2.79,5.21-1.07
		c11.74,8.02,24.55,12.57,39.02,11.19c7.73-0.74,15.1-2.48,21.21-7.66c10.16-8.63,8.96-22.28-2.68-28.74
		c-8.42-4.67-17.79-7.06-26.75-10.43c-7.46-2.8-14.86-5.65-21.72-9.82c-23.28-14.13-18.87-45.28,0.33-56.99
		C473.35,106.29,483.37,104.2,491.31,104.26z"/>
	<path class="st0" d="M597.44,243.69c-14.75-0.45-29.35-4.79-42.71-13.31c-2.82-1.8-4.02-3.3-1.49-6.38
		c2.15-2.62,3.93-5.6,5.55-8.59c1.45-2.68,2.67-2.8,5.21-1.07c11.74,8,24.54,12.58,39.02,11.19c6.71-0.64,13.08-2.23,18.91-5.84
		c11.39-7.05,13.35-24.62-1.6-31.32c-9.21-4.13-18.83-7.11-28.25-10.67c-7-2.64-13.86-5.51-20.19-9.62
		c-21.32-13.83-17.26-42.71-0.91-54.51c12.24-8.84,26.13-10.36,40.5-8.9c12.03,1.22,22.91,5.8,32.68,13.05
		c2.17,1.61,2.76,2.73,0.9,4.97c-2.9,3.51-4.83,8.7-8.48,10.47c-4.16,2.02-7.28-3.7-11.12-5.6c-11.47-5.67-23.22-7.29-35.47-3.53
		c-6.14,1.88-11.22,5.4-12.96,12.08c-2.17,8.32,0.53,14.45,8.46,18.75c7.46,4.04,15.69,6.19,23.63,9.06
		c7.64,2.76,15.19,5.67,22.41,9.49c26.1,13.81,21.21,47.09,2.93,59.88C623.58,240.93,611.41,243.51,597.44,243.69z"/>
	<path class="st0" d="M667.91,173.98c0-21.17,0.08-42.34-0.08-63.5c-0.03-3.47,1.01-4.32,4.38-4.31
		c28.66,0.13,57.31,0.13,85.97-0.01c3.54-0.02,4.61,1.14,4.23,4.46c-0.49,4.31,1.9,10.08-1.06,12.58
		c-2.52,2.13-8.07,0.75-12.28,0.76c-19.05,0.04-38.1,0.18-57.15-0.1c-4.52-0.07-5.4,1.39-5.29,5.52
		c0.28,10.41,0.32,20.85-0.02,31.26c-0.15,4.59,0.99,6.11,5.83,6.04c19.05-0.28,38.1-0.02,57.15-0.2c3.84-0.04,5.76,0.63,5.22,4.96
		c-0.52,4.15,1.71,9.61-0.85,12.22c-2.58,2.63-8.02,0.78-12.2,0.8c-16.77,0.09-33.54,0.18-50.31-0.06
		c-4.03-0.06-4.84,1.28-4.79,4.97c0.18,15.79-0.01,31.59,0.14,47.38c0.03,3.41-0.53,5.23-4.46,4.74c-4.62-0.58-10.62,1.98-13.6-1.06
		c-2.73-2.79-0.76-8.68-0.79-13.2C667.86,209.48,667.91,191.73,667.91,173.98z"/>
	<path class="st0" d="M778.12,173.74c0-20.99,0.09-41.97-0.08-62.96c-0.03-3.56,0.75-5.05,4.52-4.58
		c4.61,0.57,10.83-2.02,13.48,1.07c2.28,2.66,0.74,8.67,0.74,13.2c0.03,32.54,0.09,65.08-0.08,97.61c-0.02,4.23,0.76,5.75,5.44,5.68
		c20.98-0.29,41.97,0.03,62.96-0.25c4.53-0.06,5.67,1.36,5.2,5.47c-0.3,2.57-0.32,5.23,0.01,7.79c0.52,4.07-1.3,4.74-4.93,4.73
		c-27.49-0.13-54.99-0.15-82.48,0.01c-3.8,0.02-4.9-0.94-4.86-4.82C778.22,215.71,778.12,194.72,778.12,173.74z"/>
	<path class="st0" d="M404.23,193.24c0-14.31,0.11-28.63-0.08-42.94c-0.05-3.58,0.88-5.12,4.62-4.69
		c4.47,0.51,10.29-1.92,13.13,1.01c2.58,2.67,0.73,8.38,0.74,12.74c0.06,25.86-0.04,51.73,0.11,77.59c0.02,3.54-0.71,5.04-4.51,4.66
		c-3.38-0.34-6.84-0.24-10.24-0.02c-3.05,0.19-3.85-1.01-3.83-3.94C404.3,222.85,404.23,208.05,404.23,193.24z"/>
	<path class="st0" d="M413.37,105.47c-6.1,0.15-11,5.23-11.01,11.41c-0.01,6.46,5.01,11.38,11.51,11.28
		c6.26-0.1,10.98-4.97,10.95-11.29C424.78,110.38,419.68,105.31,413.37,105.47z"/>
</g>
</svg>
